<svg xmlns="http://www.w3.org/2000/svg" xmlns:xlink="http://www.w3.org/1999/xlink" viewBox="0 0 567.73 538.51"><defs><style>.cls-1{mask:url(#mask);filter:url(#luminosity-noclip-2);}.cls-2{mix-blend-mode:multiply;fill:url(#linear-gradient);}.cls-14,.cls-3{fill:#0486ff;}.cls-4,.cls-9{fill:#3a3a3a;}.cls-4{opacity:0.2;}.cls-5{fill:#bfdff7;}.cls-6{fill:#edb6b3;}.cls-7{fill:#1d191f;}.cls-8{fill:#1952f4;}.cls-10{fill:#ecf3ff;}.cls-11{fill:url(#linear-gradient-2);}.cls-12{fill:url(#linear-gradient-3);}.cls-13{mask:url(#mask-2);}.cls-14{opacity:0.23;}.cls-15{fill:url(#linear-gradient-4);}.cls-16{fill:url(#linear-gradient-5);}.cls-17{fill:url(#linear-gradient-6);}.cls-18{fill:url(#linear-gradient-7);}.cls-19{fill:#fff;}.cls-20{filter:url(#luminosity-noclip);}</style><filter id="luminosity-noclip" x="222.27" y="-8403.46" width="84.74" height="32766" filterUnits="userSpaceOnUse" color-interpolation-filters="sRGB"><feFlood flood-color="#fff" result="bg"/><feBlend in="SourceGraphic" in2="bg"/></filter><mask id="mask" x="222.27" y="-8403.46" width="84.74" height="32766" maskUnits="userSpaceOnUse"><g class="cls-20"/></mask><linearGradient id="linear-gradient" x1="222.27" y1="321.81" x2="307.01" y2="321.81" gradientUnits="userSpaceOnUse"><stop offset="0" stop-color="#fff"/><stop offset="0.12" stop-color="#c6c6c6"/><stop offset="0.24" stop-color="#929292"/><stop offset="0.37" stop-color="#656565"/><stop offset="0.5" stop-color="#414141"/><stop offset="0.62" stop-color="#242424"/><stop offset="0.75" stop-color="#101010"/><stop offset="0.88" stop-color="#040404"/><stop offset="1"/></linearGradient><linearGradient id="linear-gradient-2" x1="299.63" y1="432.53" x2="318" y2="432.53" gradientUnits="userSpaceOnUse"><stop offset="0" stop-color="#00cce9"/><stop offset="1" stop-color="#00e6e9"/></linearGradient><linearGradient id="linear-gradient-3" x1="301.77" y1="435.13" x2="316.39" y2="435.13" gradientUnits="userSpaceOnUse"><stop offset="0" stop-color="#55fffc"/><stop offset="1" stop-color="#bffeff"/></linearGradient><filter id="luminosity-noclip-2" x="222.27" y="271.94" width="84.74" height="99.75" filterUnits="userSpaceOnUse" color-interpolation-filters="sRGB"><feFlood flood-color="#fff" result="bg"/><feBlend in="SourceGraphic" in2="bg"/></filter><mask id="mask-2" x="222.27" y="271.94" width="84.74" height="99.75" maskUnits="userSpaceOnUse"><g class="cls-1"><path class="cls-2" d="M227.21,281.55c0-.43,79.8-9.61,79.8-9.61l-11.46,99.75-73.28-37.56Z"/></g></mask><linearGradient id="linear-gradient-4" x1="276.62" y1="429.41" x2="296.71" y2="429.41" gradientUnits="userSpaceOnUse"><stop offset="0" stop-color="#ffbfd4"/><stop offset="0.11" stop-color="#ffb7d2"/><stop offset="0.27" stop-color="#ffa2ce"/><stop offset="0.46" stop-color="#ff7fc6"/><stop offset="0.69" stop-color="#ff4fbb"/><stop offset="0.93" stop-color="#ff12ae"/><stop offset="1" stop-color="#f0a"/></linearGradient><linearGradient id="linear-gradient-5" x1="291.02" y1="437.93" x2="298.51" y2="437.93" gradientUnits="userSpaceOnUse"><stop offset="0.02" stop-color="#6f00ff"/><stop offset="0.61" stop-color="#945bff"/><stop offset="1" stop-color="#ab94ff"/></linearGradient><linearGradient id="linear-gradient-6" x1="470.46" y1="152.11" x2="473.35" y2="152.11" gradientUnits="userSpaceOnUse"><stop offset="0" stop-color="#c0bfff"/><stop offset="1" stop-color="#e9eaff"/></linearGradient><linearGradient id="linear-gradient-7" x1="49.74" y1="152.11" x2="52.63" y2="152.11" xlink:href="#linear-gradient-6"/></defs><title>404Error</title><g id="Object"><rect class="cls-3" x="38.29" y="19.5" width="445.74" height="212.48" rx="24.58" ry="24.58"/><ellipse class="cls-4" cx="259.24" cy="496.3" rx="123.8" ry="9.17"/><path class="cls-4" d="M527.8,475.18c0,2.51-16.59,4.55-37,4.55s-37-2-37-4.55,16.58-4.56,37-4.56S527.8,472.66,527.8,475.18Z"/><path class="cls-5" d="M441.53,216.81v35.65a6.34,6.34,0,0,1-6.35,6.34H408.64l-4,8.55a.62.62,0,0,1-1.13,0l-4-8.55a6.35,6.35,0,0,1-6.36-6.34V216.81a6.36,6.36,0,0,1,6.36-6.36h35.64A6.35,6.35,0,0,1,441.53,216.81Z"/><path class="cls-3" d="M409.8,235.51c0,3-1.84,4.89-4.56,4.89s-4.37-2.08-4.37-4.73,1.78-4.87,4.52-4.87S409.8,232.94,409.8,235.51Zm-6.71.12c0,1.82.85,3.1,2.26,3.1s2.23-1.35,2.23-3.16c0-1.66-.8-3.1-2.24-3.1S403.09,233.82,403.09,235.63Z"/><path class="cls-3" d="M417.77,236.8a3.38,3.38,0,0,1-3.55,3.6,3.31,3.31,0,0,1-3.49-3.47,3.37,3.37,0,0,1,3.6-3.58A3.27,3.27,0,0,1,417.77,236.8Zm-4.88.07c0,1.16.49,2,1.38,2s1.34-.82,1.34-2c0-1-.39-2-1.34-2S412.89,235.88,412.89,236.87Z"/><path class="cls-3" d="M419.07,235.77c0-.89,0-1.64-.05-2.26h1.82l.09.93h0a2.61,2.61,0,0,1,2.25-1.09c1.47,0,2.8,1.29,2.8,3.44,0,2.45-1.56,3.61-3.06,3.61a2.08,2.08,0,0,1-1.75-.77h0V243h-2.1Zm2.1,1.58a1.89,1.89,0,0,0,0,.44,1.27,1.27,0,0,0,1.23,1c.91,0,1.44-.76,1.44-1.91s-.48-1.88-1.42-1.88a1.31,1.31,0,0,0-1.25,1.06,1.45,1.45,0,0,0,0,.37Z"/><path class="cls-3" d="M427.31,238.41a4,4,0,0,0,1.8.51c.64,0,.9-.22.9-.56s-.21-.51-1-.77c-1.4-.47-1.93-1.23-1.92-2,0-1.25,1.07-2.21,2.74-2.21a4.43,4.43,0,0,1,1.9.39l-.37,1.45a3.22,3.22,0,0,0-1.46-.39c-.51,0-.8.21-.8.55s.26.49,1.09.78c1.28.44,1.82,1.08,1.83,2.08,0,1.25-1,2.17-2.92,2.17a4.87,4.87,0,0,1-2.18-.46Z"/><path class="cls-3" d="M433.07,239.14a1.24,1.24,0,1,1,1.24,1.26A1.19,1.19,0,0,1,433.07,239.14Zm.45-1.94-.31-6.24h2.19l-.3,6.24Z"/><path class="cls-6" d="M423.56,298.29s14-21.35,22.31-19c6,1.71,13.54,16.17,9.26,44.33s-22.7,10.86-22.7,10.86l-12.07-34.28Z"/><path class="cls-6" d="M387.56,345.46s1.92,7.39-5.28,13.9-8.91,10.5-8.91,10.5L382.85,382l25-5.71L423,363.72l-1.81-10.2-21.84-15.65Z"/><path class="cls-6" d="M408.33,304.33a60.51,60.51,0,0,0-23.65,13.2c-5.58,5-8.16,10.75-9.85,13.78a6.46,6.46,0,0,0,.31,6.82,16.67,16.67,0,0,0,7.83,5.79c6.6,2.59,16.81,4.4,21.42,5.13a6.5,6.5,0,0,0,4.43-.9l11.8-7.28a6.54,6.54,0,0,0,2.92-4l3-12.55a6.52,6.52,0,0,0-1.32-5.7l-10.09-12.18a6.53,6.53,0,0,0-6.85-2.1Z"/><path class="cls-7" d="M423.93,287.93s-17,9.94-15.6,16.4,8,12.77,3.52,16.54S406,324,403.94,328c-1.52,2.9-.38,5,1.22,3.27s6.49-5.32,10.6-1.5c2.68,2.49,2.77,10.74-3,11-8.8.44-18.61,1.34-19.59,6.13-.51,2.45,6.63,12.27,17.87,12.44s24.34-5.83,24.34-5.83l13.71-11.14-4.63-8.23s2.91-12.68-3.43-19.88-12.65-7.75-15.6-11.83C421.15,296.45,423.93,287.93,423.93,287.93Z"/><path class="cls-3" d="M408.56,365.52s-17.59-8.46-27.65-2.29-18.05,28.57-59.19,25.14-78.61-15.77-78.61-15.77l-22.86,44.11L244,427.22l113.12-9.82,51.42-26.74,11.2-16Z"/><path class="cls-8" d="M344.4,377.69l29-21.26s10.34,18.34,24.79,25.54l14.46,7.2-53.31,12.68s-4.57-4.68-11.88-18.05C345.74,380.7,344.4,377.69,344.4,377.69Z"/><path class="cls-6" d="M349.9,373.65s-21.09-27.33-24.52-42.75-6.4-62-10.29-66.85-8.79-6.74-8-12.57,3.88-14.85,9-17.37c3.87-1.89-1.74-24,1.83-23.65,2.51.23,5.14,20.11,7,22.85s5.26,12.23,5.6,16.34-.86,6.17,0,12.86,9.94,56.39,17,67.81,21.07,29.6,21.07,29.6Z"/><path class="cls-7" d="M239.43,379.71,183,354.38l-25.54,41.13s8.74,4.46,23.31,6.34,26.74,12.86,26.74,12.86l12.79,2Z"/><polygon class="cls-9" points="175.94 359.92 165.63 343.58 198.42 319.36 240.99 376.69 239.43 379.71 182.95 354.38 178.85 360.98 175.8 361.75 175.94 359.92"/><path class="cls-7" d="M38.86,425s-29.54-11.95-27.25-6.69,35.65,33.94,40.33,33.14,10.17-9.83,10.17-9.83Z"/><path class="cls-6" d="M194.23,322.45S192.6,312,157.41,305.64s-77.63-14.95-81-16.74c-2.68-1.43-9.47-17.33-10.65-12.74-1.31,5.1-3.66,27.43,1.6,28.8s5.71-.46,12.57,1.6,30,14.4,54,17c19.47,2.08,26.68,7.25,29.65,10.45s6.06,6.64,6.06,6.64Z"/><path class="cls-7" d="M67,275.56s-7.86-39.85-9.23-30.48-8,59.42-2.06,60.56A26.5,26.5,0,0,0,67.37,305Z"/><path class="cls-6" d="M444.5,334.15s-2.23,2.35-7.89-4.8c-1.53-1.93-4.7-1.54-9.76,3-7.14,6.45-9.09,11.24-2.29,14.51s17.37,5.6,17.37,5.6Z"/><path class="cls-6" d="M444,333.68c-.13-.08.19,3.72-1.59,1.89-1.41-1.46-3.38-9.3-3.55-10.16-.62-3.1,2-2.31,4.07,1.67S444,333.68,444,333.68Z"/><path class="cls-6" d="M178.85,361l-17,27.41-1.28,2.06-5.2-2.42c-4.41-2.06-10.71,2.72-16.68,7.78-3.31,2.8-6.53,5.69-9.27,7.55-3.93,2.67-10.47,6.39-17.79,10.34-16.29,8.76-36.4,18.6-40.07,20.38-5.32,2.57-5.09,5.26-9.43,7.54S40.63,429.5,38.57,426.08s7.55,2.51,18.06,1.14c5.2-.68,22.51-13.35,40.71-27.35,7.5-5.78,15.15-11.77,22.17-17.25,5.09-4,9.85-7.67,14-10.81s7.86-5.91,10.44-7.66C160.84,352.72,178.85,361,178.85,361Z"/><path class="cls-3" d="M123,364.38q5.19,3.84,10.51,7.43c-4.12,3.14-8.88,6.84-14,10.81a282.71,282.71,0,0,1-32.74-28.89,197.11,197.11,0,0,1-22-27.08A202.56,202.56,0,0,1,53,306.73c-.23-1.69-.42-3.39-.59-5.11l-2.64-24.89a202.91,202.91,0,0,0,16.93,30.5,197.25,197.25,0,0,0,22,27.08A280.46,280.46,0,0,0,123,364.38Z"/><path class="cls-3" d="M472.78,276.73l-.58,15.55a177.68,177.68,0,0,1-1.93,20.43c0-.34,0-.68.05-1l.57-15.55c-9.12,22.48-8.91,34.63-39.76,68.22-39.39,42.9-98.73,60.3-157.72,65.69l-3.94.33c-47.38,3.69-91.82-10.1-130.8-34.57,6-5.06,12.27-9.84,16.68-7.78l5.2,2.42,1.28-2.06C195.42,405.22,232.39,414,271.36,411l3.94-.33c59-5.39,118.32-22.79,157.72-65.69C463.87,311.36,463.65,299.21,472.78,276.73Z"/><path class="cls-3" d="M215.45,342l53.21,37.38a.54.54,0,0,0,.75-.14l1.6-2.37a.54.54,0,0,0-.14-.74l-53.26-37.46a.54.54,0,0,0-.76.16l-1.55,2.45A.53.53,0,0,0,215.45,342Z"/><path class="cls-3" d="M216.85,338.85l6.07-62.72a.81.81,0,0,1,.87-.73l3.16.28a.81.81,0,0,1,.73.88l-5.81,61.79a1.11,1.11,0,0,1-1.25,1Z"/><path class="cls-10" d="M119.51,382.62c-7,5.48-14.67,11.47-22.17,17.25C73.84,374.58,57.72,343.13,53,306.73a202.56,202.56,0,0,0,11.81,19.92,197.11,197.11,0,0,0,22,27.08A282.71,282.71,0,0,0,119.51,382.62Z"/><path class="cls-10" d="M470.89,296.14l-.57,15.55c0,.34,0,.68-.05,1-7.68,50.49-36.62,95.84-80.43,123.23q-2.35,1.49-4.73,2.85-2.67,1.56-5.4,3-3.15,1.73-6.35,3.34c-86,43.72-195.22,26.72-261.75-31.47,7.32-3.95,13.86-7.67,17.79-10.34,2.74-1.86,6-4.75,9.27-7.55,39,24.47,83.42,38.26,130.8,34.57l3.94-.33c59-5.39,118.33-22.79,157.72-65.69C462,330.77,461.77,318.62,470.89,296.14Z"/><path class="cls-11" d="M301.27,441.15c-.31-3.18-1.3-12.26-1.63-15.3a1,1,0,0,1,.9-1.12L315.9,423A1,1,0,0,1,317,424l1,14.15a1,1,0,0,1-.82,1.07l-14.69,2.88A1,1,0,0,1,301.27,441.15Z"/><path class="cls-12" d="M302.62,439.77c-.25-2.35-.58-5.46-.83-7.74a3.1,3.1,0,0,1,2.76-3.43l7.88-.89a3.13,3.13,0,0,1,3.46,2.89l.49,7.15a3.11,3.11,0,0,1-2.52,3.27l-7.54,1.48A3.11,3.11,0,0,1,302.62,439.77Z"/><g class="cls-13"><path class="cls-14" d="M227.21,281.55c0-.43,79.8-9.61,79.8-9.61l-11.46,99.75-73.28-37.56Z"/></g><path class="cls-15" d="M292.61,454.37l-15.93-47.56a1.1,1.1,0,0,1,.52-1.32l1.7-.9a1.1,1.1,0,0,1,1.56.62l16.25,48.36Z"/><path class="cls-16" d="M294.7,455.5c-.34-1.7-3.06-28-3.68-33.94a1.09,1.09,0,0,1,1.09-1.2h1.61a1.09,1.09,0,0,1,1.09,1l3.7,33.43Z"/><path class="cls-3" d="M271.1,442.08l55-10.8h0c-8.65,30.31-35.66,34.09-55,10.8Z"/><path class="cls-17" d="M471.91,285.72a1.44,1.44,0,0,1-1.45-1.44V20a1.45,1.45,0,1,1,2.89,0V284.28A1.43,1.43,0,0,1,471.91,285.72Z"/><path class="cls-18" d="M51.18,285.72a1.44,1.44,0,0,1-1.44-1.44V20a1.45,1.45,0,1,1,2.89,0V284.28A1.44,1.44,0,0,1,51.18,285.72Z"/><path class="cls-8" d="M503,294.2s5.94-1.26,10.16,2.31a27.86,27.86,0,0,1,6.24,7.46s.29-9.11-1.12-13.48c-2.4-7.48-4.1-8.29-4.1-8.29l-10.92,8Z"/><path class="cls-8" d="M542.62,289.84s6.43-.45,10.34,3.94a29.29,29.29,0,0,1,5.46,8.78s1.66-9.55.83-14.36c-1.42-8.22-3.09-9.33-3.09-9.33l-12.69,6.84Z"/><path class="cls-3" d="M464,361.06c10.82,25.52,7.35,63.29,7.35,63.29l17-2.4A46.56,46.56,0,0,0,493.06,410l-.4-.69c-1.44-2.49-7.42-3.19-7.42-3.19s-.24-.42,2.1-1.4a23.27,23.27,0,0,1,7.2-1.54,94.59,94.59,0,0,0,.35-27.6c-.87-6.82-1.78-13.2-2.56-19.2-2.55-1-6.64-.38-6.64-.38s-.33-.35,1.69-1.89a20.52,20.52,0,0,1,4.36-2.47c-1.84-15.33-2.41-28.14,1.7-39.82-2.53-1.1-6.87-.48-6.87-.48s-.32-.35,1.69-1.89a24.42,24.42,0,0,1,7.8-3.69l.19-.37c9.63-18.19,17.37-22.88,17.9-23.18-.68.21-14.06,4.46-30.74,18.47C470.05,311.92,453.16,335.53,464,361.06Z"/><path class="cls-19" d="M478,430.73a.69.69,0,0,1-.24-.05.72.72,0,0,1-.44-.92c4.76-13.58,6.93-50.72-.52-78s14.47-52.52,14.7-52.77a.72.72,0,0,1,1-.06.73.73,0,0,1,.06,1c-.22.24-21.63,24.87-14.38,51.43,7.52,27.54,5.31,65.1.48,78.86A.72.72,0,0,1,478,430.73Z"/><path class="cls-3" d="M490,422.1h18.27s3.34-3.91,6.72-11.87h0c-.09-.23-.2-.49-.31-.78-1.15-2.83-7.35-4.45-7.35-4.45s-.17-.48,2.43-1.16a24.62,24.62,0,0,1,7.8-.55,100.4,100.4,0,0,0,4.47-29c.11-7.32.1-14.16.17-20.58-2.55-1.39-6.94-1.39-6.94-1.39s-.29-.43,2.06-1.75a21.78,21.78,0,0,1,5-1.95c.34-16.4,1.64-30,7.71-41.65-2.5-1.53-7.16-1.53-7.16-1.53s-.29-.42,2.06-1.73a26.06,26.06,0,0,1,8.76-2.73l.25-.36c13.29-18.35,22.3-21.75,22.3-21.75s-15,2.3-35.11,14.89c-15.73,9.83-37,32.17-29.42,60.64S490,422.1,490,422.1Z"/><path class="cls-19" d="M501.6,428.67a.81.81,0,0,1-.34-.08.74.74,0,0,1-.31-1c6.94-13.4,9.52-50.53,5.64-81.09-3.79-29.84,23-53.08,23.28-53.31a.72.72,0,0,1,1,.08.73.73,0,0,1-.08,1c-.27.23-26.48,23-22.79,52,3.91,30.8,1.26,68.32-5.78,81.94A.72.72,0,0,1,501.6,428.67Z"/><path class="cls-7" d="M518.68,422.09H464.59l14.23,52.83s23.57.46,23.88.14S518.68,422.09,518.68,422.09Z"/><path class="cls-19" d="M161.79,173.15v-11h-43a10.29,10.29,0,0,1-10.29-10.3v-4.45a10.27,10.27,0,0,1,1.75-5.74l46.48-69.11A10.29,10.29,0,0,1,165.25,68h8.18a10.29,10.29,0,0,1,10.29,10.29V141.6h4.22a10.29,10.29,0,0,1,10.29,10.29h0a10.3,10.3,0,0,1-10.29,10.3h-4.22v11a10.28,10.28,0,0,1-10.29,10.29h-1.35A10.29,10.29,0,0,1,161.79,173.15Zm0-72.21h-1.35l-27.5,40.66h28.85Z"/><path class="cls-19" d="M261.5,186.14a43,43,0,0,1-20.08-4.64,46.18,46.18,0,0,1-15.27-12.74,58.6,58.6,0,0,1-9.7-19.14,81.41,81.41,0,0,1-3.37-23.88,81.39,81.39,0,0,1,3.37-23.87,58.65,58.65,0,0,1,9.7-19.15A46.3,46.3,0,0,1,241.42,70a45.77,45.77,0,0,1,40.16,0,46.3,46.3,0,0,1,15.27,12.74,58.65,58.65,0,0,1,9.7,19.15,81.39,81.39,0,0,1,3.37,23.87,81.41,81.41,0,0,1-3.37,23.88,58.6,58.6,0,0,1-9.7,19.14,46.18,46.18,0,0,1-15.27,12.74A43,43,0,0,1,261.5,186.14Zm0-20.92a20.82,20.82,0,0,0,11-2.95,26,26,0,0,0,8.35-8.27,40.51,40.51,0,0,0,5.23-12.57,70.78,70.78,0,0,0,0-31.46,40.75,40.75,0,0,0-5.23-12.49,26.09,26.09,0,0,0-8.35-8.26,20.83,20.83,0,0,0-11-3,21.16,21.16,0,0,0-11.14,3,25.26,25.26,0,0,0-8.26,8.26A41.93,41.93,0,0,0,237,110a70.78,70.78,0,0,0,0,31.46A41.68,41.68,0,0,0,242.1,154a25.2,25.2,0,0,0,8.26,8.27A21.15,21.15,0,0,0,261.5,165.22Z"/><path class="cls-19" d="M377.4,173.15v-11h-43a10.3,10.3,0,0,1-10.29-10.3v-4.45a10.27,10.27,0,0,1,1.75-5.74l46.48-69.11A10.29,10.29,0,0,1,380.86,68h8.19a10.29,10.29,0,0,1,10.29,10.29V141.6h4.22a10.29,10.29,0,0,1,10.29,10.29h0a10.3,10.3,0,0,1-10.29,10.3h-4.22v11a10.29,10.29,0,0,1-10.29,10.29H387.7A10.29,10.29,0,0,1,377.4,173.15Zm0-72.21h-1.35l-27.5,40.66H377.4Z"/></g></svg>